<svg xmlns="http://www.w3.org/2000/svg" xmlns:xlink="http://www.w3.org/1999/xlink" width="196" height="196" viewBox="0 0 196 196">
  <defs>
    <filter id="Rectangle_20" x="91.962" y="39.103" width="56.518" height="133.333" filterUnits="userSpaceOnUse">
      <feOffset dy="2" input="SourceAlpha"/>
      <feGaussianBlur stdDeviation="5.5" result="blur"/>
      <feFlood flood-opacity="0.161"/>
      <feComposite operator="in" in2="blur"/>
      <feComposite in="SourceGraphic"/>
    </filter>
    <filter id="Rectangle_21" x="48.936" y="37.538" width="53.067" height="134.341" filterUnits="userSpaceOnUse">
      <feOffset dy="2" input="SourceAlpha"/>
      <feGaussianBlur stdDeviation="5.5" result="blur-2"/>
      <feFlood flood-opacity="0.161"/>
      <feComposite operator="in" in2="blur-2"/>
      <feComposite in="SourceGraphic"/>
    </filter>
    <linearGradient id="linear-gradient" y1="0.036" x2="0.434" y2="0.367" gradientUnits="objectBoundingBox">
      <stop offset="0" stop-color="#53d1ef"/>
      <stop offset="1" stop-color="#1976d2"/>
    </linearGradient>
    <filter id="base" x="0" y="0" width="196" height="196" filterUnits="userSpaceOnUse">
      <feOffset dy="4" input="SourceAlpha"/>
      <feGaussianBlur stdDeviation="7" result="blur-3"/>
      <feFlood flood-opacity="0.2"/>
      <feComposite operator="in" in2="blur-3"/>
      <feComposite in="SourceGraphic"/>
    </filter>
    <filter id="Subtraction_1" x="50.5" y="32.043" width="93.521" height="128.588" filterUnits="userSpaceOnUse">
      <feOffset dy="2" input="SourceAlpha"/>
      <feGaussianBlur stdDeviation="5.5" result="blur-4"/>
      <feFlood flood-opacity="0.161"/>
      <feComposite operator="in" in2="blur-4"/>
      <feComposite in="SourceGraphic"/>
    </filter>
  </defs>
  <g id="icon-app-versus-big" transform="translate(5 12)">
    <g transform="matrix(1, 0, 0, 1, -5, -12)" filter="url(#base)">
      <rect id="base-2" data-name="base" width="154" height="154" rx="32" transform="translate(21 17)" fill="url(#linear-gradient)"/>
    </g>
    <g id="icon-compare" transform="translate(63 34.543)">
      <g transform="matrix(1, 0, 0, 1, -68, -46.54)" filter="url(#Subtraction_1)">
        <path id="Subtraction_1-2" data-name="Subtraction 1" d="M30.261,95.588a3.243,3.243,0,0,1-3.344-3.122V68.589a21.745,21.745,0,0,0,6.689.252V92.466A3.243,3.243,0,0,1,30.261,95.588Zm20.227-7.061H41.461V66.315a21.513,21.513,0,0,0,0-37.665V7.061h9.027A10.044,10.044,0,0,1,60.521,17.094v61.4A10.045,10.045,0,0,1,50.488,88.528Zm-31.988,0H10.033A10.045,10.045,0,0,1,0,78.494v-61.4A10.031,10.031,0,0,1,10.033,7.061H18.5v5.572H14.492l.157.56A5.678,5.678,0,0,0,18.5,17.4v5.7a11.234,11.234,0,0,1-9.237-8.7l-.346-1.582a4.466,4.466,0,0,0-3.344,4.281v61.4a4.465,4.465,0,0,0,4.46,4.459H18.5v5.574Zm8.416-62.153h0V3.121a3.352,3.352,0,0,1,6.689,0v23a21.747,21.747,0,0,0-6.688.251Z" transform="translate(67 46.54)" fill="#fff"/>
      </g>
      <circle id="Ellipse_2" data-name="Ellipse 2" cx="17" cy="17" r="17" transform="translate(13 30.457)" fill="#fff"/>
      <path id="icon-vs" d="M7.154-12.992v-1.335h1.79v1.335ZM3.577-11.659v-1.333H1.787v-1.335H0V-21H3.577v6.671h1.79v1.335H7.154v1.333Zm5.367-2.668V-21h1.79v6.671Zm3.592,2.668v-1.333h8.944v1.333Zm8.944-1.333v-2.67h1.79v2.67Zm-7.156-2.67v-1.333H12.536v-2.67h1.787V-21h8.946v1.333H16.113v2.67h5.367v1.333Z" transform="translate(18.7 64.811)" fill="#1873cd"/>
    </g>
  </g>
</svg>
