<svg xmlns="http://www.w3.org/2000/svg" width="7.797" height="7.8" viewBox="0 0 7.797 7.8">
  <g id="icon-arrow-down" transform="translate(-18.203 -2.6)">
    <path id="icon-arrow-grey" d="M3.9,3.939a.465.465,0,0,1-.113.264L.816,7.637a.465.465,0,0,1-.7-.609L2.819,3.9.114.769A.465.465,0,1,1,.816.16l2.97,3.434A.464.464,0,0,1,3.9,3.939Z" transform="translate(26 6.5) rotate(90)" fill="#eef2f6"/>
    <path id="icon-arrow-grey-2" data-name="icon-arrow-grey" d="M3.9,3.939a.465.465,0,0,1-.113.264L.816,7.637a.465.465,0,0,1-.7-.609L2.819,3.9.114.769A.465.465,0,1,1,.816.16l2.97,3.434A.464.464,0,0,1,3.9,3.939Z" transform="translate(26 2.6) rotate(90)" fill="#eef2f6" opacity="0.4"/>
  </g>
</svg>
