<svg xmlns="http://www.w3.org/2000/svg" width="21.368" height="19" viewBox="0 0 21.368 19">
  <path id="icon-recent" d="M-5876-1315.5a9.5,9.5,0,0,1,9.5-9.5,9.47,9.47,0,0,1,6.583,2.651.864.864,0,0,1,.024,1.221.864.864,0,0,1-1.221.024,7.743,7.743,0,0,0-5.387-2.17,7.773,7.773,0,0,0-7.772,7.773,7.772,7.772,0,0,0,7.772,7.773,7.772,7.772,0,0,0,7.771-7.616l-.893.886a.864.864,0,0,1-1.221,0,.863.863,0,0,1,0-1.221l2.369-2.369a.863.863,0,0,1,1.221,0l2.369,2.369a.864.864,0,0,1,0,1.221.865.865,0,0,1-1.222,0l-.9-.9a9.5,9.5,0,0,1-9.5,9.353A9.5,9.5,0,0,1-5876-1315.5Zm10.955,3.525L-5867.2-1315a.872.872,0,0,1-.161-.5v-5.181a.864.864,0,0,1,.864-.864.864.864,0,0,1,.864.864v4.966l2,2.737a.865.865,0,0,1-.2,1.205.864.864,0,0,1-.5.161A.864.864,0,0,1-5865.044-1311.975Z" transform="translate(5876 1325)" fill="#03a9f4"/>
</svg>
